<svg xmlns="http://www.w3.org/2000/svg" xmlns:xlink="http://www.w3.org/1999/xlink" width="585.77" height="153.98" viewBox="0 0 585.77 153.98"><defs><linearGradient id="a" x1="38.12" y1="22.06" x2="82.97" y2="66.91" gradientUnits="userSpaceOnUse"><stop offset="0" stop-color="#f06724"/><stop offset="0.15" stop-color="#ec6524"/><stop offset="0.3" stop-color="#df5e24"/><stop offset="0.46" stop-color="#cb5323"/><stop offset="0.61" stop-color="#ae4422"/><stop offset="0.7" stop-color="#9a3a22"/></linearGradient><linearGradient id="b" x1="54.1" y1="6.07" x2="98.95" y2="50.91" xlink:href="#a"/><linearGradient id="c" x1="135.03" y1="87.06" x2="147.77" y2="99.81" gradientUnits="userSpaceOnUse"><stop offset="0.3" stop-color="#9a3a22"/><stop offset="0.39" stop-color="#ae4422"/><stop offset="0.54" stop-color="#cb5323"/><stop offset="0.7" stop-color="#df5e24"/><stop offset="0.85" stop-color="#ec6524"/><stop offset="1" stop-color="#f06724"/></linearGradient><linearGradient id="d" x1="119.05" y1="103.05" x2="131.8" y2="115.8" xlink:href="#c"/><linearGradient id="e" x1="54.87" y1="103.06" x2="99.72" y2="147.91" gradientUnits="userSpaceOnUse"><stop offset="0.3" stop-color="#1e1221"/><stop offset="0.37" stop-color="#25132a"/><stop offset="0.59" stop-color="#36163e"/><stop offset="0.8" stop-color="#41184b"/><stop offset="1" stop-color="#44194f"/></linearGradient><linearGradient id="f" x1="70.84" y1="87.07" x2="115.69" y2="131.92" xlink:href="#e"/><linearGradient id="g" x1="22.02" y1="38.18" x2="34.75" y2="50.91" gradientUnits="userSpaceOnUse"><stop offset="0" stop-color="#44194f"/><stop offset="0.2" stop-color="#41184b"/><stop offset="0.41" stop-color="#36163e"/><stop offset="0.63" stop-color="#25132a"/><stop offset="0.7" stop-color="#1e1221"/></linearGradient><linearGradient id="h" x1="6.04" y1="54.17" x2="18.78" y2="66.91" xlink:href="#g"/><linearGradient id="i" x1="131.81" y1="38.19" x2="86.97" y2="83.02" gradientUnits="userSpaceOnUse"><stop offset="0" stop-color="#ffc415"/><stop offset="0.14" stop-color="#fbc116"/><stop offset="0.29" stop-color="#eeb719"/><stop offset="0.44" stop-color="#daa71e"/><stop offset="0.59" stop-color="#bd9026"/><stop offset="0.7" stop-color="#a37c2c"/></linearGradient><linearGradient id="j" x1="147.78" y1="54.18" x2="102.95" y2="99.02" xlink:href="#i"/><linearGradient id="k" x1="50.87" y1="119.19" x2="38.13" y2="131.93" gradientUnits="userSpaceOnUse"><stop offset="0.3" stop-color="#a37c2c"/><stop offset="0.41" stop-color="#bd9026"/><stop offset="0.56" stop-color="#daa71e"/><stop offset="0.71" stop-color="#eeb719"/><stop offset="0.86" stop-color="#fbc116"/><stop offset="1" stop-color="#ffc415"/></linearGradient><linearGradient id="l" x1="66.85" y1="135.18" x2="54.11" y2="147.92" xlink:href="#k"/><linearGradient id="m" x1="66.86" y1="70.94" x2="22.01" y2="115.79" gradientUnits="userSpaceOnUse"><stop offset="0.3" stop-color="#311a37"/><stop offset="0.34" stop-color="#381e3f"/><stop offset="0.51" stop-color="#512b5c"/><stop offset="0.68" stop-color="#633570"/><stop offset="0.84" stop-color="#6d3b7d"/><stop offset="1" stop-color="#713d81"/></linearGradient><linearGradient id="n" x1="50.89" y1="54.95" x2="6.04" y2="99.8" xlink:href="#m"/><linearGradient id="o" x1="99.71" y1="6.06" x2="86.83" y2="18.94" gradientUnits="userSpaceOnUse"><stop offset="0" stop-color="#713d81"/><stop offset="0.16" stop-color="#6d3b7d"/><stop offset="0.32" stop-color="#633570"/><stop offset="0.49" stop-color="#512b5c"/><stop offset="0.66" stop-color="#381e3f"/><stop offset="0.7" stop-color="#311a37"/></linearGradient><linearGradient id="p" x1="115.68" y1="22.05" x2="102.8" y2="34.93" xlink:href="#o"/></defs><polygon points="44.19 15.99 32.09 28.11 76.91 72.97 89.01 60.86 44.19 15.99" fill="url(#a)"/><polygon points="48.06 12.12 92.88 56.98 104.99 44.87 60.17 0 48.06 12.12" fill="url(#b)"/><polygon points="128.98 93.12 141.72 105.86 153.82 93.75 141.09 81 128.98 93.12" fill="url(#c)"/><polygon points="125.11 97 113.01 109.11 125.74 121.86 137.84 109.74 125.11 97" fill="url(#d)"/><polygon points="60.93 97 48.83 109.11 93.65 153.98 105.75 141.86 60.93 97" fill="url(#e)"/><polygon points="64.81 93.12 109.63 137.99 121.73 125.87 76.91 81 64.81 93.12" fill="url(#f)"/><polygon points="15.98 44.24 28.7 56.97 40.8 44.86 28.08 32.12 15.98 44.24" fill="url(#g)"/><polygon points="12.1 48.11 0 60.23 12.72 72.96 24.82 60.85 12.1 48.11" fill="url(#h)"/><polygon points="137.84 44.24 125.74 32.12 80.93 76.97 93.03 89.09 137.84 44.24" fill="url(#i)"/><polygon points="96.91 92.97 109.01 105.08 153.82 60.23 141.72 48.11 96.91 92.97" fill="url(#j)"/><polygon points="56.92 125.24 44.82 113.13 32.09 125.87 44.19 137.99 56.92 125.24" fill="url(#k)"/><polygon points="48.06 141.86 60.17 153.98 72.89 141.24 60.79 129.12 48.06 141.86" fill="url(#l)"/><polygon points="15.97 109.74 28.08 121.86 72.9 76.99 60.8 64.87 15.97 109.74" fill="url(#m)"/><polygon points="56.92 61 44.82 48.88 0 93.75 12.1 105.86 56.92 61" fill="url(#n)"/><polygon points="105.75 12.12 93.65 0 80.78 12.88 92.88 25 105.75 12.12" fill="url(#o)"/><polygon points="96.76 28.87 108.86 40.99 121.73 28.11 109.63 15.99 96.76 28.87" fill="url(#p)"/><path d="M230.66,99.37c0-20.27,15.74-33.94,32.71-33.94,15.45,0,24.88,9.95,24.88,25.06,0,20.27-15.74,33.93-32.67,33.93C240.09,124.42,230.66,114.48,230.66,99.37ZM272.54,91c0-8.21-4-12.86-10.34-12.86-8.16,0-15.83,8.6-15.83,20.76,0,8.21,4,12.85,10.34,12.85C264.87,111.73,272.54,103.14,272.54,91Z" transform="translate(-6.09 -7.44)" fill="#441a4f"/><path d="M290.11,106.73a29.17,29.17,0,0,1,.87-7.07l9.86-43.94h-16l2.53-12.1h31.35L306,101.55a17.27,17.27,0,0,0-.49,4.18c0,4.19,2.88,6,6.56,6,3.38,0,5.65-.74,9.37-2.45l3.22,11.51a39.62,39.62,0,0,1-17.34,3.63C297.24,124.42,290.11,118,290.11,106.73Z" transform="translate(-6.09 -7.44)" fill="#441a4f"/><path d="M324,99.37c0-20.27,15.74-33.94,32.7-33.94,15.46,0,24.88,9.95,24.88,25.06,0,20.27-15.74,33.93-32.67,33.93C333.39,124.42,324,114.48,324,99.37ZM365.84,91c0-8.21-4-12.86-10.35-12.86-8.15,0-15.83,8.6-15.83,20.76,0,8.21,4,12.85,10.35,12.85C358.16,111.73,365.84,103.14,365.84,91Z" transform="translate(-6.09 -7.44)" fill="#441a4f"/><path d="M214.49,65.43c-7.16,0-14.18,4.09-19.68,9.46l6.78-31.27H170.24l-2.53,12.1h16l-14.69,67.35h15.29l7.58-34.94c5.14-6.16,10.77-9.45,15.37-9.45,3.7,0,5.78,1.88,5.78,5.7a28.83,28.83,0,0,1-.86,5.82l-6.57,32.87h15.51l7-34.76a43.42,43.42,0,0,0,.94-8.41C229.06,70.55,223.9,65.43,214.49,65.43Z" transform="translate(-6.09 -7.44)" fill="#441a4f"/><path d="M441,99.37c0-20.27,15.74-33.94,32.71-33.94,15.45,0,24.88,9.95,24.88,25.06,0,20.27-15.74,33.93-32.68,33.93C450.41,124.42,441,114.48,441,99.37ZM482.86,91c0-8.21-4-12.86-10.34-12.86-8.16,0-15.83,8.6-15.83,20.76,0,8.21,4,12.85,10.34,12.85C475.19,111.73,482.86,103.14,482.86,91Z" transform="translate(-6.09 -7.44)" fill="#441a4f"/><path d="M500.43,106.73a29.17,29.17,0,0,1,.87-7.07l9.86-43.94h-16l2.53-12.1H529l-12.72,57.93a17.27,17.27,0,0,0-.49,4.18c0,4.19,2.88,6,6.56,6,3.38,0,5.65-.74,9.37-2.45L535,120.79a39.62,39.62,0,0,1-17.34,3.63C507.56,124.42,500.43,118,500.43,106.73Z" transform="translate(-6.09 -7.44)" fill="#441a4f"/><path d="M534.28,99.37c0-20.27,15.74-33.94,32.7-33.94,15.46,0,24.88,9.95,24.88,25.06,0,20.27-15.74,33.93-32.67,33.93C543.71,124.42,534.28,114.48,534.28,99.37ZM576.16,91c0-8.21-4-12.86-10.35-12.86-8.15,0-15.83,8.6-15.83,20.76,0,8.21,4,12.85,10.35,12.85C568.48,111.73,576.16,103.14,576.16,91Z" transform="translate(-6.09 -7.44)" fill="#441a4f"/><path d="M424.81,65.43c-7.16,0-14.19,4.09-19.68,9.46l6.78-31.27H380.56L378,55.72h16l-14.68,67.35h15.29l7.58-34.94c5.14-6.16,10.77-9.45,15.36-9.45,3.71,0,5.79,1.88,5.79,5.7a28.83,28.83,0,0,1-.86,5.82L416,123.07h15.51l7-34.76a43.42,43.42,0,0,0,.94-8.41C439.38,70.55,434.22,65.43,424.81,65.43Z" transform="translate(-6.09 -7.44)" fill="#441a4f"/></svg>